<svg width="92" height="92" viewBox="0 0 92 92" fill="none" xmlns="http://www.w3.org/2000/svg">
<path fill-rule="evenodd" clip-rule="evenodd" d="M45.5 0C44.1193 0 43 1.11929 43 2.5V16.1481C43.9867 16.0502 44.9875 16 46 16C46.6721 16 47.339 16.0221 48 16.0656V2.5C48 1.11929 46.8807 0 45.5 0ZM65.7521 23.4195C67.0079 24.5189 68.1712 25.7214 69.2288 27.0138L78.8805 17.3622C79.8568 16.3859 79.8568 14.8029 78.8805 13.8266C77.9042 12.8503 76.3212 12.8503 75.3449 13.8266L65.7521 23.4195ZM75.9344 44C75.9779 44.661 76 45.3279 76 46C76 47.0125 75.9498 48.0133 75.8519 49H89.5C90.8807 49 92 47.8807 92 46.5C92 45.1193 90.8807 44 89.5 44H75.9344ZM68.5805 65.7521C67.4811 67.0079 66.2786 68.1712 64.9862 69.2288L74.6378 78.8805C75.6141 79.8568 77.197 79.8568 78.1734 78.8805C79.1497 77.9042 79.1497 76.3212 78.1734 75.3449L68.5805 65.7521ZM48 75.9344C47.339 75.9779 46.6721 76 46 76C44.9875 76 43.9867 75.9498 43 75.8519V89.5C43 90.8807 44.1193 92 45.5 92C46.8807 92 48 90.8807 48 89.5V75.9344ZM27.0138 69.2288C25.7214 68.1712 24.5189 67.0079 23.4195 65.7521L13.8266 75.3449C12.8503 76.3212 12.8503 77.9042 13.8266 78.8805C14.803 79.8568 16.3859 79.8568 17.3622 78.8805L27.0138 69.2288ZM16.1481 49C16.0502 48.0133 16 47.0125 16 46C16 45.3279 16.0221 44.661 16.0656 44H2.5C1.11929 44 0 45.1193 0 46.5C0 47.8807 1.11929 49 2.5 49H16.1481ZM22.7712 27.0138C23.8288 25.7214 24.9921 24.5189 26.2479 23.4195L16.6551 13.8266C15.6788 12.8503 14.0958 12.8503 13.1195 13.8266C12.1432 14.803 12.1432 16.3859 13.1195 17.3622L22.7712 27.0138Z" fill="black"/>
<path fill-rule="evenodd" clip-rule="evenodd" d="M45.5 0C44.1193 0 43 1.11929 43 2.5V16.1481C43.9867 16.0502 44.9875 16 46 16C46.6721 16 47.339 16.0221 48 16.0656V2.5C48 1.11929 46.8807 0 45.5 0ZM65.7521 23.4195C67.0079 24.5189 68.1712 25.7214 69.2288 27.0138L78.8805 17.3622C79.8568 16.3859 79.8568 14.8029 78.8805 13.8266C77.9042 12.8503 76.3212 12.8503 75.3449 13.8266L65.7521 23.4195ZM75.9344 44C75.9779 44.661 76 45.3279 76 46C76 47.0125 75.9498 48.0133 75.8519 49H89.5C90.8807 49 92 47.8807 92 46.5C92 45.1193 90.8807 44 89.5 44H75.9344ZM68.5805 65.7521C67.4811 67.0079 66.2786 68.1712 64.9862 69.2288L74.6378 78.8805C75.6141 79.8568 77.197 79.8568 78.1734 78.8805C79.1497 77.9042 79.1497 76.3212 78.1734 75.3449L68.5805 65.7521ZM48 75.9344C47.339 75.9779 46.6721 76 46 76C44.9875 76 43.9867 75.9498 43 75.8519V89.5C43 90.8807 44.1193 92 45.5 92C46.8807 92 48 90.8807 48 89.5V75.9344ZM27.0138 69.2288C25.7214 68.1712 24.5189 67.0079 23.4195 65.7521L13.8266 75.3449C12.8503 76.3212 12.8503 77.9042 13.8266 78.8805C14.803 79.8568 16.3859 79.8568 17.3622 78.8805L27.0138 69.2288ZM16.1481 49C16.0502 48.0133 16 47.0125 16 46C16 45.3279 16.0221 44.661 16.0656 44H2.5C1.11929 44 0 45.1193 0 46.5C0 47.8807 1.11929 49 2.5 49H16.1481ZM22.7712 27.0138C23.8288 25.7214 24.9921 24.5189 26.2479 23.4195L16.6551 13.8266C15.6788 12.8503 14.0958 12.8503 13.1195 13.8266C12.1432 14.803 12.1432 16.3859 13.1195 17.3622L22.7712 27.0138Z" fill="black"/>
<path fill-rule="evenodd" clip-rule="evenodd" d="M45.5 0C44.1193 0 43 1.11929 43 2.5V16.1481C43.9867 16.0502 44.9875 16 46 16C46.6721 16 47.339 16.0221 48 16.0656V2.5C48 1.11929 46.8807 0 45.5 0ZM65.7521 23.4195C67.0079 24.5189 68.1712 25.7214 69.2288 27.0138L78.8805 17.3622C79.8568 16.3859 79.8568 14.8029 78.8805 13.8266C77.9042 12.8503 76.3212 12.8503 75.3449 13.8266L65.7521 23.4195ZM75.9344 44C75.9779 44.661 76 45.3279 76 46C76 47.0125 75.9498 48.0133 75.8519 49H89.5C90.8807 49 92 47.8807 92 46.5C92 45.1193 90.8807 44 89.5 44H75.9344ZM68.5805 65.7521C67.4811 67.0079 66.2786 68.1712 64.9862 69.2288L74.6378 78.8805C75.6141 79.8568 77.197 79.8568 78.1734 78.8805C79.1497 77.9042 79.1497 76.3212 78.1734 75.3449L68.5805 65.7521ZM48 75.9344C47.339 75.9779 46.6721 76 46 76C44.9875 76 43.9867 75.9498 43 75.8519V89.5C43 90.8807 44.1193 92 45.5 92C46.8807 92 48 90.8807 48 89.5V75.9344ZM27.0138 69.2288C25.7214 68.1712 24.5189 67.0079 23.4195 65.7521L13.8266 75.3449C12.8503 76.3212 12.8503 77.9042 13.8266 78.8805C14.803 79.8568 16.3859 79.8568 17.3622 78.8805L27.0138 69.2288ZM16.1481 49C16.0502 48.0133 16 47.0125 16 46C16 45.3279 16.0221 44.661 16.0656 44H2.5C1.11929 44 0 45.1193 0 46.5C0 47.8807 1.11929 49 2.5 49H16.1481ZM22.7712 27.0138C23.8288 25.7214 24.9921 24.5189 26.2479 23.4195L16.6551 13.8266C15.6788 12.8503 14.0958 12.8503 13.1195 13.8266C12.1432 14.803 12.1432 16.3859 13.1195 17.3622L22.7712 27.0138Z" fill="black"/>
</svg>
