<svg width="92" height="92" viewBox="0 0 92 92" fill="none" xmlns="http://www.w3.org/2000/svg">
<path fill-rule="evenodd" clip-rule="evenodd" d="M46 0C43.2386 0 41 2.23858 41 5V16.4148C42.626 16.142 44.2964 16 46 16C47.7036 16 49.374 16.142 51 16.4148V5C51 2.23858 48.7614 0 46 0ZM63.3827 21.5463C66.1153 23.4922 68.5078 25.8847 70.4537 28.6173L78.5269 20.5442C80.4795 18.5915 80.4795 15.4257 78.5269 13.4731C76.5743 11.5205 73.4085 11.5205 71.4558 13.4731L63.3827 21.5463ZM75.5852 41C75.858 42.626 76 44.2964 76 46C76 47.7036 75.858 49.374 75.5852 51H87C89.7614 51 92 48.7614 92 46C92 43.2386 89.7614 41 87 41H75.5852ZM70.4537 63.3827C68.5078 66.1153 66.1153 68.5078 63.3827 70.4537L71.4558 78.5269C73.4085 80.4795 76.5743 80.4795 78.5269 78.5269C80.4795 76.5743 80.4795 73.4085 78.5269 71.4558L70.4537 63.3827ZM51 75.5852C49.374 75.858 47.7036 76 46 76C44.2964 76 42.626 75.858 41 75.5852V87C41 89.7614 43.2386 92 46 92C48.7614 92 51 89.7614 51 87V75.5852ZM28.6173 70.4537C25.8847 68.5078 23.4922 66.1153 21.5463 63.3827L13.4731 71.4558C11.5205 73.4085 11.5205 76.5743 13.4731 78.5269C15.4257 80.4795 18.5915 80.4795 20.5442 78.5269L28.6173 70.4537ZM16.4148 51C16.142 49.374 16 47.7036 16 46C16 44.2964 16.142 42.626 16.4148 41H5C2.23857 41 0 43.2386 0 46C0 48.7614 2.23857 51 5 51H16.4148ZM21.5463 28.6173C23.4922 25.8847 25.8847 23.4922 28.6173 21.5463L20.5442 13.4731C18.5915 11.5205 15.4257 11.5205 13.4731 13.4731C11.5205 15.4257 11.5205 18.5915 13.4731 20.5442L21.5463 28.6173Z" fill="black"/>
<path fill-rule="evenodd" clip-rule="evenodd" d="M46 0C43.2386 0 41 2.23858 41 5V16.4148C42.626 16.142 44.2964 16 46 16C47.7036 16 49.374 16.142 51 16.4148V5C51 2.23858 48.7614 0 46 0ZM63.3827 21.5463C66.1153 23.4922 68.5078 25.8847 70.4537 28.6173L78.5269 20.5442C80.4795 18.5915 80.4795 15.4257 78.5269 13.4731C76.5743 11.5205 73.4085 11.5205 71.4558 13.4731L63.3827 21.5463ZM75.5852 41C75.858 42.626 76 44.2964 76 46C76 47.7036 75.858 49.374 75.5852 51H87C89.7614 51 92 48.7614 92 46C92 43.2386 89.7614 41 87 41H75.5852ZM70.4537 63.3827C68.5078 66.1153 66.1153 68.5078 63.3827 70.4537L71.4558 78.5269C73.4085 80.4795 76.5743 80.4795 78.5269 78.5269C80.4795 76.5743 80.4795 73.4085 78.5269 71.4558L70.4537 63.3827ZM51 75.5852C49.374 75.858 47.7036 76 46 76C44.2964 76 42.626 75.858 41 75.5852V87C41 89.7614 43.2386 92 46 92C48.7614 92 51 89.7614 51 87V75.5852ZM28.6173 70.4537C25.8847 68.5078 23.4922 66.1153 21.5463 63.3827L13.4731 71.4558C11.5205 73.4085 11.5205 76.5743 13.4731 78.5269C15.4257 80.4795 18.5915 80.4795 20.5442 78.5269L28.6173 70.4537ZM16.4148 51C16.142 49.374 16 47.7036 16 46C16 44.2964 16.142 42.626 16.4148 41H5C2.23857 41 0 43.2386 0 46C0 48.7614 2.23857 51 5 51H16.4148ZM21.5463 28.6173C23.4922 25.8847 25.8847 23.4922 28.6173 21.5463L20.5442 13.4731C18.5915 11.5205 15.4257 11.5205 13.4731 13.4731C11.5205 15.4257 11.5205 18.5915 13.4731 20.5442L21.5463 28.6173Z" fill="black"/>
<path fill-rule="evenodd" clip-rule="evenodd" d="M46 0C43.2386 0 41 2.23858 41 5V16.4148C42.626 16.142 44.2964 16 46 16C47.7036 16 49.374 16.142 51 16.4148V5C51 2.23858 48.7614 0 46 0ZM63.3827 21.5463C66.1153 23.4922 68.5078 25.8847 70.4537 28.6173L78.5269 20.5442C80.4795 18.5915 80.4795 15.4257 78.5269 13.4731C76.5743 11.5205 73.4085 11.5205 71.4558 13.4731L63.3827 21.5463ZM75.5852 41C75.858 42.626 76 44.2964 76 46C76 47.7036 75.858 49.374 75.5852 51H87C89.7614 51 92 48.7614 92 46C92 43.2386 89.7614 41 87 41H75.5852ZM70.4537 63.3827C68.5078 66.1153 66.1153 68.5078 63.3827 70.4537L71.4558 78.5269C73.4085 80.4795 76.5743 80.4795 78.5269 78.5269C80.4795 76.5743 80.4795 73.4085 78.5269 71.4558L70.4537 63.3827ZM51 75.5852C49.374 75.858 47.7036 76 46 76C44.2964 76 42.626 75.858 41 75.5852V87C41 89.7614 43.2386 92 46 92C48.7614 92 51 89.7614 51 87V75.5852ZM28.6173 70.4537C25.8847 68.5078 23.4922 66.1153 21.5463 63.3827L13.4731 71.4558C11.5205 73.4085 11.5205 76.5743 13.4731 78.5269C15.4257 80.4795 18.5915 80.4795 20.5442 78.5269L28.6173 70.4537ZM16.4148 51C16.142 49.374 16 47.7036 16 46C16 44.2964 16.142 42.626 16.4148 41H5C2.23857 41 0 43.2386 0 46C0 48.7614 2.23857 51 5 51H16.4148ZM21.5463 28.6173C23.4922 25.8847 25.8847 23.4922 28.6173 21.5463L20.5442 13.4731C18.5915 11.5205 15.4257 11.5205 13.4731 13.4731C11.5205 15.4257 11.5205 18.5915 13.4731 20.5442L21.5463 28.6173Z" fill="black"/>
</svg>
