<svg width="40" height="42" viewBox="0 0 40 42" fill="none" xmlns="http://www.w3.org/2000/svg">
<path d="M31.3606 41.339C31.3606 37.4324 30.1591 33.6857 28.0205 30.9233C25.8818 28.1609 22.9812 26.609 19.9567 26.609C16.9322 26.609 14.0316 28.1609 11.893 30.9233C9.75433 33.6857 8.55286 37.4324 8.55286 41.339L31.3606 41.339Z" fill="#D9D9D9"/>
<circle cx="19.9568" cy="19.0065" r="5.70193" fill="#D9D9D9"/>
<mask id="mask0_106_30" style="mask-type:alpha" maskUnits="userSpaceOnUse" x="0" y="0" width="40" height="35">
<path d="M34.0683 34.0683C36.8593 31.2773 38.76 27.7214 39.53 23.8501C40.3001 19.9789 39.9049 15.9663 38.3944 12.3196C36.8839 8.67301 34.326 5.5562 31.0441 3.36332C27.7623 1.17044 23.9038 1.80364e-07 19.9568 0C16.0097 -1.80364e-07 12.1513 1.17044 8.86938 3.36332C5.58751 5.55619 3.02961 8.67301 1.51913 12.3196C0.0086472 15.9663 -0.386563 19.9789 0.383472 23.8501C1.15351 27.7213 3.0542 31.2773 5.8452 34.0683C8.55289 26.609 15.9135 22.8077 19.9568 22.8077C24 22.8077 31.3606 26.609 34.0683 34.0683Z" fill="#D9D9D9"/>
</mask>
<g mask="url(#mask0_106_30)">
<circle cx="19.9567" cy="19.9568" r="11.3542" stroke="#C4C4C4" stroke-width="2"/>
<circle cx="19.9568" cy="19.9567" r="15.1555" stroke="#C4C4C4" stroke-width="2"/>
<circle cx="19.9568" cy="19.9568" r="18.9568" stroke="#C4C4C4" stroke-width="2"/>
</g>
</svg>
